<?xml version="1.0" encoding="UTF-8"?>
<svg id="Layer_2" data-name="Layer 2" xmlns="http://www.w3.org/2000/svg" viewBox="0 0 527.96 40.64">
  <defs>
    <style>
      .cls-1, .cls-2, .cls-3 {
        fill: #fff;
      }

      .cls-4 {
        stroke: #21709a;
      }

      .cls-4, .cls-5, .cls-6 {
        fill: none;
        stroke-miterlimit: 10;
        stroke-width: 2px;
      }

      .cls-7 {
        letter-spacing: -.12em;
      }

      .cls-8 {
        font-size: 38px;
      }

      .cls-8, .cls-2 {
        font-family: Konexy-Bold, Konexy;
      }

      .cls-5 {
        stroke: #fff;
      }

      .cls-2 {
        font-size: 38.65px;
      }

      .cls-3 {
        letter-spacing: 0em;
      }

      .cls-9 {
        letter-spacing: .43em;
      }

      .cls-6 {
        stroke: #ed1c24;
      }
    </style>
  </defs>
  <g id="Layer_1-2" data-name="Layer 1">
    <g>
      <g>
        <text class="cls-8" transform="translate(33.56 31.94)"><tspan class="cls-3" x="0" y="0">L</tspan><tspan class="cls-1" x="33.82" y="0">AN</tspan><tspan class="cls-9" x="112.33" y="0">	</tspan><tspan class="cls-1" x="144" y="0">K’S</tspan><tspan x="225.93" y="0"> </tspan></text>
        <path class="cls-5" d="M7.04,26.65v4.96H1V7.37H24.12c1.4,.05,2.45,.44,3.1,.75,3.46,1.66,4.62,4.52,4.8,5.24,.16,.62,.2,1.11,.2,1.11,0,0,.02,.9,.01,.98-1.75,.03-5.01,.16-5.01,.16,0-.31-.02-.38-.29-.95-.48-1.02-1.39-1.33-1.71-1.44-.26-.09-14.58-.24-15.86-.23-.91,.01-2.06-.02-2.04-.02v.97h-2.34s0,2.28,0,2.28h2.27v2.11h-2.23v2.27s1.49,.03,2.28,.03c.02,.42,.03,.47,.05,.9,.9,.02,1.27,.02,2.02,.02,.53,0,14.92,.17,15.66,0,.09-.02,.15-.04,.2-.05,.35-.11,.84-.27,1.27-.77,.67-.78,.71-1.44,.71-1.75,0,0,3.24-.02,4.99-.01,0,.08,.01,.15,.02,.18,.03,.41-.02,.56-.02,1.25h0s-.04,.49-.19,1.11c-.18,.72-.48,2.54-3.93,4.23-.46,.22-2.6,.73-4.09,.78-1.1,.03-16.95,.17-16.95,.17Z"/>
        <g>
          <path class="cls-5" d="M154.56,12.4h20.24V7.67h-22.43c-.81,0-2.4,.65-3.59,1.95s-1.79,2.89-1.79,4.77v9.68c0,1.87,.6,3.46,1.79,4.77,1.19,1.3,2.78,1.95,4.77,1.95h21.25v-4.73h-20.66c-1.15,0-1.72-.6-1.72-1.81V14.16c0-.63,.48-1.77,2.14-1.77Z"/>
          <path class="cls-6" d="M162.21,12.39h12.59V7.67h-12.59"/>
          <path class="cls-4" d="M162.21,30.77h12.59v-4.72h-12.59"/>
        </g>
      </g>
      <g>
        <text class="cls-2" transform="translate(267.9 32.21)"><tspan class="cls-7" x="0" y="0">P</tspan><tspan x="31.73" y="0" xml:space="preserve">ARAD  X</tspan></text>
        <g>
          <path class="cls-1" d="M479.86,19.22c0,1.69-1.37,3.05-3.05,3.05s-3.05-1.37-3.05-3.05,1.37-3.05,3.05-3.05,3.05,1.37,3.05,3.05"/>
          <path class="cls-1" d="M490.02,11.59c-.48-.83-1.34-1.42-2.48-1.73-.17-.95-.99-1.67-1.99-1.67s-1.75,.66-1.97,1.54c-.48,.06-.96,.15-1.45,.25-1.2-3.68-3.12-6.02-5.33-6.02s-4.13,2.34-5.34,6.02c-3.94-.84-6.79-.26-7.87,1.62-1.08,1.87-.15,4.64,2.55,7.63-.26,.29-.51,.58-.74,.87-.2-.06-.4-.1-.6-.1-1.12,0-2.03,.91-2.03,2.03,0,.59,.26,1.12,.67,1.49-.42,1.29-.36,2.43,.16,3.34,.76,1.31,2.39,1.99,4.64,1.99,.96,0,2.05-.13,3.23-.38,1.21,3.68,3.13,6.02,5.34,6.02s4.13-2.34,5.34-6.02c.74,.16,1.45,.27,2.12,.32,.26,.83,1.02,1.44,1.93,1.44,1.07,0,1.93-.83,2.01-1.88,.82-.34,1.43-.83,1.82-1.5,1.08-1.88,.15-4.64-2.55-7.63,2.68-2.98,3.62-5.74,2.53-7.62h0Zm-6.35-.63c.3,.75,1.03,1.29,1.88,1.29,.8,0,1.49-.47,1.82-1.15,.75,.23,1.29,.6,1.59,1.11,.77,1.34-.12,3.66-2.33,6.13-.97-.97-2.09-1.93-3.35-2.85-.16-1.56-.43-3.01-.78-4.33,.39-.07,.78-.14,1.17-.2h0Zm-2.36,16.04c-.99-.26-2-.6-3.03-1.01,.63-.31,1.25-.64,1.86-.99,.62-.36,1.22-.74,1.8-1.12-.16,1.13-.37,2.17-.63,3.12h0Zm-9.64-3.12c.58,.38,1.18,.76,1.8,1.12,.61,.35,1.24,.68,1.86,.99-1.04,.42-2.05,.75-3.03,1.01-.26-.95-.47-2-.63-3.12h0Zm.63-12.44c.98,.26,1.99,.59,3.03,1.01-.62,.31-1.24,.64-1.86,.99-.62,.36-1.22,.74-1.79,1.12,.15-1.13,.37-2.17,.62-3.12h0Zm-2.1,9.89c-.88-.69-1.67-1.39-2.38-2.1,.71-.72,1.51-1.42,2.38-2.11-.04,.69-.06,1.39-.06,2.11s.02,1.41,.06,2.1Zm3.88,2.61c-.92-.53-1.78-1.09-2.59-1.66-.09-.97-.13-1.99-.13-3.05s.05-2.09,.13-3.06c.81-.57,1.67-1.13,2.59-1.66,.89-.52,1.81-.98,2.72-1.41,.92,.42,1.83,.89,2.72,1.41,.92,.53,1.78,1.09,2.59,1.66,.09,.97,.13,1.99,.13,3.06s-.05,2.08-.13,3.05c-.81,.57-1.68,1.14-2.59,1.66-.89,.52-1.81,.98-2.72,1.41-.92-.43-1.83-.9-2.72-1.41Zm7.85-9.37c-.58-.38-1.17-.76-1.8-1.12-.61-.35-1.23-.68-1.86-.99,1.04-.42,2.05-.75,3.03-1.01,.26,.95,.47,2,.63,3.12h0Zm1.47,2.55c.88,.69,1.67,1.39,2.38,2.11-.71,.71-1.5,1.42-2.37,2.1,.04-.68,.06-1.39,.06-2.1,0-.71-.02-1.42-.07-2.11h0Zm-6.6-11.93c1.52,0,3.09,1.89,4.16,5.08-1.34,.36-2.73,.85-4.16,1.48-1.43-.63-2.82-1.12-4.16-1.48,1.06-3.2,2.64-5.08,4.16-5.08Zm-12.15,7.02c.77-1.34,3.22-1.72,6.47-1.05-.35,1.32-.62,2.78-.79,4.34-1.25,.92-2.37,1.87-3.36,2.85-2.2-2.48-3.09-4.8-2.33-6.14h0Zm0,14.04c-.34-.58-.37-1.33-.1-2.23,.08,.01,.16,.02,.24,.02,1.12,0,2.03-.91,2.03-2.03,0-.46-.16-.88-.42-1.22,.18-.23,.38-.46,.59-.69,.97,.97,2.09,1.92,3.35,2.84,.16,1.56,.43,3.02,.79,4.35-3.25,.68-5.7,.29-6.47-1.04h0Zm12.15,7.02c-1.52,0-3.09-1.89-4.16-5.08,1.35-.36,2.74-.86,4.16-1.49,1.42,.63,2.81,1.13,4.16,1.49-1.06,3.2-2.64,5.08-4.16,5.08Zm12.16-7.02c-.22,.38-.57,.68-1.05,.92-.35-.59-.99-.98-1.73-.98-.89,0-1.65,.59-1.92,1.39-.56-.05-1.15-.14-1.78-.27,.35-1.32,.62-2.78,.79-4.35,1.26-.92,2.38-1.87,3.35-2.84,2.22,2.47,3.11,4.8,2.34,6.13h0Z"/>
        </g>
      </g>
    </g>
  </g>
</svg>